HIERARCHY
ROOT Hips
{
  OFFSET 0.0000 94.0000 0.0000
  CHANNELS 6 Xposition Yposition Zposition Yrotation Xrotation Zrotation
  JOINT Spine
  {
    OFFSET 0.0000 12.9947 0.0000
    CHANNELS 3 Yrotation Xrotation Zrotation
    JOINT Spine1
    {
      OFFSET 12.7099 0.0000 0.0000
      CHANNELS 3 Yrotation Xrotation Zrotation
      JOINT Spine2
      {
        OFFSET 12.7829 0.0000 0.0000
        CHANNELS 3 Yrotation Xrotation Zrotation
        JOINT LeftShoulder
        {
          OFFSET 10.4351 -7.0401 1.9147
          CHANNELS 3 Yrotation Xrotation Zrotation
          JOINT LeftArm
          {
            OFFSET 13.4599 0.0000 0.0000
            CHANNELS 3 Yrotation Xrotation Zrotation
            JOINT LeftForeArm
            {
              OFFSET 26.1001 0.0000 0.0001
              CHANNELS 3 Yrotation Xrotation Zrotation
              JOINT LeftHand
              {
                OFFSET 28.9001 0.0000 0.0000
                CHANNELS 3 Yrotation Xrotation Zrotation
                JOINT LeftInHandIndex
                {
                  OFFSET 2.6469 -0.1030 1.6042
                  CHANNELS 3 Yrotation Xrotation Zrotation
                  JOINT LeftHandIndex1
                  {
                    OFFSET 5.4270 0.0000 0.9569
                    CHANNELS 3 Yrotation Xrotation Zrotation
                    JOINT LeftHandIndex2
                    {
                      OFFSET 4.5806 0.0000 0.0000
                      CHANNELS 3 Yrotation Xrotation Zrotation
                      JOINT LeftHandIndex3
                      {
                        OFFSET 2.8181 -0.0001 0.0000
                        CHANNELS 3 Yrotation Xrotation Zrotation
                        End Site
                        {
                          OFFSET 1.4090 0.0000 0.0000
                        }
                      }
                    }
                  }
                }
                JOINT LeftInHandMiddle
                {
                  OFFSET 2.7689 -0.1030 0.5450
                  CHANNELS 3 Yrotation Xrotation Zrotation
                  JOINT LeftHandMiddle1
                  {
                    OFFSET 5.3677 0.0000 0.0000
                    CHANNELS 3 Yrotation Xrotation Zrotation
                    JOINT LeftHandMiddle2
                    {
                      OFFSET 4.7024 0.0000 0.0000
                      CHANNELS 3 Yrotation Xrotation Zrotation
                      JOINT LeftHandMiddle3
                      {
                        OFFSET 3.1016 0.0000 0.0000
                        CHANNELS 3 Yrotation Xrotation Zrotation
                        End Site
                        {
                          OFFSET 1.5508 0.0000 0.0000
                        }
                      }
                    }
                  }
                }
                JOINT LeftInHandPinky
                {
                  OFFSET 2.4891 -0.1030 -1.4884
                  CHANNELS 3 Yrotation Xrotation Zrotation
                  JOINT LeftHandPinky1
                  {
                    OFFSET 4.5290 0.0000 -1.6484
                    CHANNELS 3 Yrotation Xrotation Zrotation
                    JOINT LeftHandPinky2
                    {
                      OFFSET 3.5541 0.0000 0.0000
                      CHANNELS 3 Yrotation Xrotation Zrotation
                      JOINT LeftHandPinky3
                      {
                        OFFSET 2.2340 0.0000 0.0000
                        CHANNELS 3 Yrotation Xrotation Zrotation
                        End Site
                        {
                          OFFSET 1.1170 0.0000 0.0000
                        }
                      }
                    }
                  }
                }
                JOINT LeftInHandRing
                {
                  OFFSET 2.7444 -0.1030 -0.5478
                  CHANNELS 3 Yrotation Xrotation Zrotation
                  JOINT LeftHandRing1
                  {
                    OFFSET 5.0624 0.0000 -0.8927
                    CHANNELS 3 Yrotation Xrotation Zrotation
                    JOINT LeftHandRing2
                    {
                      OFFSET 4.3923 0.0000 0.0000
                      CHANNELS 3 Yrotation Xrotation Zrotation
                      JOINT LeftHandRing3
                      {
                        OFFSET 2.8327 -0.0001 0.0000
                        CHANNELS 3 Yrotation Xrotation Zrotation
                        End Site
                        {
                          OFFSET 1.4163 0.0000 0.0000
                        }
                      }
                    }
                  }
                }
                JOINT LeftHandThumb1
                {
                  OFFSET 2.0791 -0.0946 2.7863
                  CHANNELS 3 Yrotation Xrotation Zrotation
                  JOINT LeftHandThumb2
                  {
                    OFFSET 3.9619 0.0000 0.0000
                    CHANNELS 3 Yrotation Xrotation Zrotation
                    JOINT LeftHandThumb3
                    {
                      OFFSET 3.0072 0.0000 0.0000
                      CHANNELS 3 Yrotation Xrotation Zrotation
                      End Site
                      {
                        OFFSET 1.7295 0.0000 0.0000
                      }
                    }
                  }
                }
              }
            }
          }
        }
        JOINT Neck
        {
          OFFSET 18.2093 0.0000 0.0000
          CHANNELS 3 Yrotation Xrotation Zrotation
          JOINT Head
          {
            OFFSET 11.0335 0.0000 0.0000
            CHANNELS 3 Yrotation Xrotation Zrotation
            End Site
            {
              OFFSET 22.0670 0.0000 0.0000
            }
          }
        }
        JOINT RightShoulder
        {
          OFFSET 10.4351 7.0401 1.9147
          CHANNELS 3 Yrotation Xrotation Zrotation
          JOINT RightArm
          {
            OFFSET 13.4599 0.0001 0.0000
            CHANNELS 3 Yrotation Xrotation Zrotation
            JOINT RightForeArm
            {
              OFFSET 26.1001 0.0001 0.0000
              CHANNELS 3 Yrotation Xrotation Zrotation
              JOINT RightHand
              {
                OFFSET 28.9001 0.0001 0.0001
                CHANNELS 3 Yrotation Xrotation Zrotation
                JOINT RightInHandIndex
                {
                  OFFSET 2.6470 -0.1029 -1.6042
                  CHANNELS 3 Yrotation Xrotation Zrotation
                  JOINT RightHandIndex1
                  {
                    OFFSET 5.4271 0.0001 -0.9569
                    CHANNELS 3 Yrotation Xrotation Zrotation
                    JOINT RightHandIndex2
                    {
                      OFFSET 4.5805 0.0001 0.0000
                      CHANNELS 3 Yrotation Xrotation Zrotation
                      JOINT RightHandIndex3
                      {
                        OFFSET 2.8181 0.0001 0.0000
                        CHANNELS 3 Yrotation Xrotation Zrotation
                        End Site
                        {
                          OFFSET 1.4091 0.0000 0.0000
                        }
                      }
                    }
                  }
                }
                JOINT RightInHandMiddle
                {
                  OFFSET 2.7689 -0.1029 -0.5450
                  CHANNELS 3 Yrotation Xrotation Zrotation
                  JOINT RightHandMiddle1
                  {
                    OFFSET 5.3677 0.0001 0.0000
                    CHANNELS 3 Yrotation Xrotation Zrotation
                    JOINT RightHandMiddle2
                    {
                      OFFSET 4.7024 0.0001 0.0000
                      CHANNELS 3 Yrotation Xrotation Zrotation
                      JOINT RightHandMiddle3
                      {
                        OFFSET 3.1016 0.0001 0.0000
                        CHANNELS 3 Yrotation Xrotation Zrotation
                        End Site
                        {
                          OFFSET 1.5508 0.0001 0.0000
                        }
                      }
                    }
                  }
                }
                JOINT RightInHandPinky
                {
                  OFFSET 2.4892 -0.1029 1.4884
                  CHANNELS 3 Yrotation Xrotation Zrotation
                  JOINT RightHandPinky1
                  {
                    OFFSET 4.5290 0.0002 1.6484
                    CHANNELS 3 Yrotation Xrotation Zrotation
                    JOINT RightHandPinky2
                    {
                      OFFSET 3.5541 0.0000 0.0000
                      CHANNELS 3 Yrotation Xrotation Zrotation
                      JOINT RightHandPinky3
                      {
                        OFFSET 2.2340 0.0001 0.0000
                        CHANNELS 3 Yrotation Xrotation Zrotation
                        End Site
                        {
                          OFFSET 1.1170 0.0001 0.0000
                        }
                      }
                    }
                  }
                }
                JOINT RightInHandRing
                {
                  OFFSET 2.7444 -0.1029 0.5478
                  CHANNELS 3 Yrotation Xrotation Zrotation
                  JOINT RightHandRing1
                  {
                    OFFSET 5.0624 0.0002 0.8927
                    CHANNELS 3 Yrotation Xrotation Zrotation
                    JOINT RightHandRing2
                    {
                      OFFSET 4.3922 0.0001 0.0000
                      CHANNELS 3 Yrotation Xrotation Zrotation
                      JOINT RightHandRing3
                      {
                        OFFSET 2.8327 0.0001 0.0000
                        CHANNELS 3 Yrotation Xrotation Zrotation
                        End Site
                        {
                          OFFSET 1.4163 0.0000 0.0000
                        }
                      }
                    }
                  }
                }
                JOINT RightHandThumb1
                {
                  OFFSET 2.0791 -0.0945 -2.7863
                  CHANNELS 3 Yrotation Xrotation Zrotation
                  JOINT RightHandThumb2
                  {
                    OFFSET 3.9619 0.0001 0.0000
                    CHANNELS 3 Yrotation Xrotation Zrotation
                    JOINT RightHandThumb3
                    {
                      OFFSET 3.0072 0.0001 0.0000
                      CHANNELS 3 Yrotation Xrotation Zrotation
                      End Site
                      {
                        OFFSET 1.7295 0.0000 0.0000
                      }
                    }
                  }
                }
              }
            }
          }
        }
      }
    }
  }
  JOINT LeftUpLeg
  {
    OFFSET 8.1000 0.0000 0.0000
    CHANNELS 3 Yrotation Xrotation Zrotation
    JOINT LeftLeg
    {
      OFFSET 43.2000 0.0000 0.0000
      CHANNELS 3 Yrotation Xrotation Zrotation
      JOINT LeftFoot
      {
        OFFSET 43.3000 0.0000 0.0000
        CHANNELS 3 Yrotation Xrotation Zrotation
        JOINT LeftToeBase
        {
          OFFSET 14.5727 0.0000 0.0000
          CHANNELS 3 Yrotation Xrotation Zrotation
          End Site
          {
            OFFSET 7.2863 0.0000 0.0000
          }
        }
      }
    }
  }
  JOINT RightUpLeg
  {
    OFFSET -8.1000 0.0000 0.0000
    CHANNELS 3 Yrotation Xrotation Zrotation
    JOINT RightLeg
    {
      OFFSET 43.2000 0.0000 0.0000
      CHANNELS 3 Yrotation Xrotation Zrotation
      JOINT RightFoot
      {
        OFFSET 43.3000 -0.0626 0.0000
        CHANNELS 3 Yrotation Xrotation Zrotation
        JOINT RightToeBase
        {
          OFFSET 14.5727 0.0000 0.0000
          CHANNELS 3 Yrotation Xrotation Zrotation
          End Site
          {
            OFFSET 7.2864 0.0000 0.0000
          }
        }
      }
    }
  }
}
MOTION
Frames: 4
Frame Time: 0.003000
-28.3346 107.3951 -173.5261 -1.0247 18.3960 -8.8456 0.0000 0.0000 90.0000 0.0000 0.0000 0.0000 0.0000 -10.6043 0.0000 0.0000 0.0000 -90.0000 -57.2247 20.8164 -61.8987 -28.6111 0.0000 0.0000 0.0000 0.0000 0.0000 0.0024 1.2310 0.2171 -8.2881 0.5561 -17.9917 0.0007 0.0002 -17.9987 -0.0008 0.0000 -18.0016 0.0000 0.0000 0.0000 -5.1372 -1.6664 -17.9253 -0.0001 0.0000 -18.0001 -0.0035 -0.0010 -18.0000 0.5905 -5.8773 -5.1793 11.2007 -13.4478 -16.1482 -0.0001 -0.0003 -18.0000 0.0000 0.0000 -17.9992 0.1281 -2.7201 -2.5537 1.3567 -8.1103 -16.9813 0.0001 0.0001 -17.9990 -0.0035 -0.0011 -18.0010 -51.5735 53.9499 -31.5005 6.3507 0.3529 -6.3509 6.3509 0.3527 -6.3510 0.0000 0.0000 0.0000 26.9845 3.5862 -77.6178 180.0000 0.0000 89.9999 -6.8043 24.1114 -98.2838 28.2600 0.0000 0.0000 0.0000 0.0000 0.0000 -0.0024 -1.2310 0.2172 8.2881 -0.5563 -17.9918 -0.0003 -0.0001 -17.9993 178.0982 0.6179 17.9904 -0.0001 0.0000 0.0001 5.1372 1.6664 -17.9253 0.0000 0.0000 -18.0000 178.0978 0.6179 17.9897 -0.5906 5.8773 -5.1799 -11.2007 13.4479 -16.1470 -0.0002 -0.0001 -17.9992 178.0983 0.6180 17.9922 -0.1281 2.7201 -2.5536 -1.3567 8.1101 -16.9812 0.0000 0.0000 -17.9993 178.0978 0.6179 17.9904 51.5729 -53.9501 -31.5001 -6.3505 -0.3528 -6.3507 -6.3509 -0.3527 -6.3510 18.7655 -9.4915 -86.8664 21.8328 0.0000 0.0826 295.2680 90.0000 0.0000 0.1665 -0.0730 23.6759 54.0779 -70.0354 137.8979 48.3770 0.0000 0.0000 295.3508 90.0000 0.0000 0.8871 -0.3629 22.2469
-28.1213 108.1899 -173.2843 -0.6343 18.1094 -8.3133 0.0000 0.0000 90.0000 0.0000 0.0000 0.0000 0.0000 -10.5355 0.0000 0.0000 0.0000 -90.0000 -57.5933 21.3660 -62.1202 -29.8217 0.0000 0.0000 0.0000 0.0000 0.0000 0.0024 1.2310 0.2171 -8.2881 0.5561 -17.9917 0.0007 0.0002 -17.9988 -0.0008 0.0000 -18.0016 0.0000 -0.0001 0.0000 -5.1372 -1.6664 -17.9253 -0.0001 0.0000 -18.0001 -0.0035 -0.0010 -18.0000 0.5905 -5.8773 -5.1793 11.2007 -13.4477 -16.1482 -0.0001 -0.0003 -18.0000 0.0000 0.0000 -17.9993 0.1281 -2.7201 -2.5537 1.3567 -8.1103 -16.9813 0.0001 0.0001 -17.9990 -0.0035 -0.0011 -18.0010 -51.5734 53.9498 -31.5004 6.3507 0.3529 -6.3509 6.3509 0.3527 -6.3510 0.0000 0.0000 0.0000 26.6438 3.8236 -78.2322 180.0000 0.0000 89.9999 -5.3948 24.1091 -97.2150 28.1512 0.0000 0.0000 0.0000 0.0000 0.0000 -0.0024 -1.2310 0.2172 8.2881 -0.5563 -17.9918 -0.0003 -0.0001 -17.9993 178.0982 0.6179 17.9904 -0.0001 0.0000 0.0001 5.1372 1.6664 -17.9253 0.0000 0.0000 -18.0000 178.0978 0.6179 17.9897 -0.5906 5.8773 -5.1799 -11.2007 13.4479 -16.1470 -0.0002 -0.0001 -17.9992 178.0983 0.6180 17.9922 -0.1281 2.7201 -2.5536 -1.3567 8.1101 -16.9812 0.0000 0.0000 -17.9993 178.0978 0.6179 17.9904 51.5729 -53.9501 -31.5001 -6.3505 -0.3528 -6.3507 -6.3510 -0.3527 -6.3509 18.8102 -9.3765 -87.1391 22.0149 0.0000 0.0827 295.2680 90.0000 0.0000 0.1874 -0.0822 23.6906 52.5284 -69.2564 139.1004 48.9012 0.0000 -0.0001 295.3508 90.0000 0.0000 0.9233 -0.3803 22.3855
-27.8621 109.2474 -173.0382 -0.2502 17.8179 -7.7882 0.0000 0.0000 90.0000 0.0000 0.0000 0.0000 0.0000 -10.4660 0.0000 0.0000 0.0000 -90.0000 -57.9470 21.9168 -62.3348 -31.0372 0.0000 0.0000 0.0000 0.0000 0.0000 0.0024 1.2310 0.2171 -8.2881 0.5561 -17.9917 0.0007 0.0002 -17.9988 -0.0008 0.0000 -18.0016 0.0000 -0.0001 0.0000 -5.1372 -1.6664 -17.9253 0.0000 0.0000 -18.0001 -0.0035 -0.0010 -18.0000 0.5905 -5.8773 -5.1793 11.2007 -13.4477 -16.1482 -0.0001 -0.0003 -18.0000 0.0000 0.0000 -17.9993 0.1281 -2.7201 -2.5537 1.3567 -8.1103 -16.9813 0.0001 0.0001 -17.9990 -0.0035 -0.0011 -18.0010 -51.5735 53.9498 -31.5005 6.3507 0.3529 -6.3509 6.3509 0.3527 -6.3510 0.0000 0.0000 0.0000 26.2946 4.0576 -78.8423 180.0000 0.0000 89.9999 -3.9633 24.0702 -96.1457 28.0562 -0.0001 0.0000 0.0000 0.0000 0.0000 -0.0024 -1.2310 0.2172 8.2881 -0.5563 -17.9918 -0.0003 -0.0001 -17.9993 178.0982 0.6179 17.9904 0.0000 0.0000 0.0001 5.1372 1.6664 -17.9253 0.0000 0.0000 -18.0000 178.0978 0.6179 17.9897 -0.5906 5.8773 -5.1799 -11.2007 13.4479 -16.1470 -0.0002 -0.0001 -17.9992 178.0983 0.6180 17.9922 -0.1281 2.7201 -2.5536 -1.3567 8.1101 -16.9812 0.0000 0.0000 -17.9993 178.0978 0.6179 17.9904 51.5729 -53.9501 -31.5001 -6.3505 -0.3527 -6.3507 -6.3509 -0.3527 -6.3510 18.8505 -9.2571 -87.4084 22.1958 0.0000 0.0827 295.2681 90.0000 0.0000 0.2073 -0.0910 23.7051 51.0742 -68.4727 140.2070 49.4395 0.0000 0.0000 295.3508 90.0000 0.0000 0.9600 -0.3982 22.5284
-27.5609 110.4582 -172.7887 0.1906 17.4465 -7.2223 0.0000 0.0000 90.0000 0.0000 0.0000 0.0000 0.0000 -10.5114 0.0000 0.0000 0.0000 -90.0000 -58.3066 22.6398 -62.6132 -32.5362 0.0000 0.0000 0.0000 0.0000 0.0000 0.0024 1.2310 0.2171 -8.2881 0.5560 -17.9917 0.0006 0.0002 -17.9987 -0.0008 0.0000 -18.0016 0.0000 -0.0001 0.0000 -5.1372 -1.6664 -17.9253 0.0000 0.0000 -18.0001 -0.0035 -0.0010 -18.0000 0.5905 -5.8773 -5.1793 11.2007 -13.4477 -16.1482 -0.0001 -0.0003 -18.0000 0.0000 0.0000 -17.9992 0.1281 -2.7201 -2.5537 1.3567 -8.1103 -16.9813 0.0001 0.0000 -17.9990 -0.0035 -0.0011 -18.0010 -51.5734 53.9498 -31.5004 6.3507 0.3529 -6.3509 6.3509 0.3527 -6.3510 0.0000 0.0000 0.0000 25.8626 4.3762 -79.4640 180.0000 0.0000 89.9999 -1.7361 23.9729 -94.6289 28.0400 0.0000 0.0000 0.0000 0.0000 0.0000 -0.0024 -1.2310 0.2172 8.2881 -0.5563 -17.9918 -0.0003 -0.0001 -17.9993 178.0982 0.6179 17.9904 -0.0001 0.0000 0.0001 5.1372 1.6664 -17.9253 0.0000 0.0000 -18.0000 178.0978 0.6179 17.9897 -0.5906 5.8773 -5.1799 -11.2007 13.4478 -16.1469 -0.0002 -0.0001 -17.9992 178.0983 0.6180 17.9922 -0.1281 2.7201 -2.5536 -1.3567 8.1101 -16.9812 0.0000 0.0000 -17.9993 178.0978 0.6179 17.9904 51.5729 -53.9500 -31.5001 -6.3505 -0.3528 -6.3507 -6.3509 -0.3527 -6.3510 18.9106 -9.1785 -87.6836 22.5283 0.0000 0.0827 295.2681 90.0000 0.0000 0.2292 -0.1007 23.7171 49.5816 -67.5589 141.3983 50.4671 0.0000 0.0000 295.3508 90.0000 0.0000 1.0032 -0.4208 22.7587
